<?xml version="1.0" encoding="UTF-8" standalone="no"?>
<svg
   xmlns:dc="http://purl.org/dc/elements/1.1/"
   xmlns:cc="http://creativecommons.org/ns#"
   xmlns:rdf="http://www.w3.org/1999/02/22-rdf-syntax-ns#"
   xmlns:svg="http://www.w3.org/2000/svg"
   xmlns="http://www.w3.org/2000/svg"
   viewBox="0 0 500 500"
   height="500"
   width="500"
   xml:space="preserve"
   id="svg2"
   version="1.1"><metadata
     id="metadata8"><rdf:RDF><cc:Work
         rdf:about=""><dc:format>image/svg+xml</dc:format><dc:type
           rdf:resource="http://purl.org/dc/dcmitype/StillImage" /></cc:Work></rdf:RDF></metadata><defs
     id="defs6"><clipPath
       id="clipPath14"
       clipPathUnits="userSpaceOnUse"><path
         id="path12"
         d="M 0,8.039989 H 375 V 383.03998 H 0 Z" /></clipPath><clipPath
       id="clipPath24"
       clipPathUnits="userSpaceOnUse"><path
         style="clip-rule:evenodd"
         id="path22"
         d="M 0,0 H 1562.5 V 1562.5 H 0 Z" /></clipPath><clipPath
       id="clipPath36"
       clipPathUnits="userSpaceOnUse"><path
         style="clip-rule:evenodd"
         id="path34"
         d="M 0,0 H 1562.5 V 1562.5 H 0 Z" /></clipPath><clipPath
       id="clipPath48"
       clipPathUnits="userSpaceOnUse"><path
         id="path46"
         d="M 0,0 H 1562.5 V 1562.5 H 0 Z" /></clipPath><clipPath
       id="clipPath54"
       clipPathUnits="userSpaceOnUse"><path
         id="path52"
         d="M 0,0 H 1562.5 V 1562.5 H 0 Z" /></clipPath><clipPath
       id="clipPath60"
       clipPathUnits="userSpaceOnUse"><path
         id="path58"
         d="m 439.91724,979.73492 212.43469,-179.5133 62.5271,73.99408 -212.43469,179.5133 z" /></clipPath><clipPath
       id="clipPath66"
       clipPathUnits="userSpaceOnUse"><path
         id="path64"
         d="m 439.91724,979.73492 212.43469,-179.5133 62.5271,73.99408 -212.43469,179.5133 z" /></clipPath><clipPath
       id="clipPath96"
       clipPathUnits="userSpaceOnUse"><path
         style="clip-rule:evenodd"
         id="path94"
         d="m 486.0365,292.10477 h 590.625 v 715.62503 h -590.625 z" /></clipPath><clipPath
       id="clipPath108"
       clipPathUnits="userSpaceOnUse"><path
         id="path106"
         d="M 0,0 H 1562.5 V 1562.5 H 0 Z" /></clipPath><clipPath
       id="clipPath114"
       clipPathUnits="userSpaceOnUse"><path
         id="path112"
         d="M 0,0 H 1562.5 V 1562.5 H 0 Z" /></clipPath><clipPath
       id="clipPath120"
       clipPathUnits="userSpaceOnUse"><path
         id="path118"
         d="M 467.56686,323.47321 750.06323,156.55458 905.85394,420.21783 623.35754,587.13647 Z" /></clipPath><clipPath
       id="clipPath126"
       clipPathUnits="userSpaceOnUse"><path
         id="path124"
         d="M 467.56686,323.47321 750.06323,156.55458 905.85394,420.21783 623.35754,587.13647 Z" /></clipPath><clipPath
       id="clipPath138"
       clipPathUnits="userSpaceOnUse"><path
         id="path136"
         d="M 0,0 H 1562.5 V 1562.5 H 0 Z" /></clipPath><clipPath
       id="clipPath144"
       clipPathUnits="userSpaceOnUse"><path
         id="path142"
         d="M 0,0 H 1562.5 V 1562.5 H 0 Z" /></clipPath><clipPath
       id="clipPath150"
       clipPathUnits="userSpaceOnUse"><path
         id="path148"
         d="M 467.56686,323.47321 750.06323,156.55458 905.85394,420.21783 623.35754,587.13647 Z" /></clipPath><clipPath
       id="clipPath156"
       clipPathUnits="userSpaceOnUse"><path
         id="path154"
         d="M 467.56686,323.47321 750.06323,156.55458 905.85394,420.21783 623.35754,587.13647 Z" /></clipPath><clipPath
       id="clipPath162"
       clipPathUnits="userSpaceOnUse"><path
         id="path160"
         d="m 849.35669,385.5672 27.02777,-15.96991 22.74091,38.48724 -27.02771,15.96991 z" /></clipPath><clipPath
       id="clipPath174"
       clipPathUnits="userSpaceOnUse"><path
         id="path172"
         d="M 0,0 H 1562.5 V 1562.5 H 0 Z" /></clipPath><clipPath
       id="clipPath180"
       clipPathUnits="userSpaceOnUse"><path
         id="path178"
         d="M 0,0 H 1562.5 V 1562.5 H 0 Z" /></clipPath><clipPath
       id="clipPath186"
       clipPathUnits="userSpaceOnUse"><path
         id="path184"
         d="M 467.56686,323.47321 750.06323,156.55458 905.85394,420.21783 623.35754,587.13647 Z" /></clipPath><clipPath
       id="clipPath192"
       clipPathUnits="userSpaceOnUse"><path
         id="path190"
         d="M 467.56686,323.47321 750.06323,156.55458 905.85394,420.21783 623.35754,587.13647 Z" /></clipPath><clipPath
       id="clipPath206"
       clipPathUnits="userSpaceOnUse"><path
         id="path204"
         d="M 0,0 H 1562.5 V 1562.5 H 0 Z" /></clipPath><clipPath
       id="clipPath212"
       clipPathUnits="userSpaceOnUse"><path
         id="path210"
         d="M 0,0 H 1562.5 V 1562.5 H 0 Z" /></clipPath><clipPath
       id="clipPath218"
       clipPathUnits="userSpaceOnUse"><path
         id="path216"
         d="M 467.56686,323.47321 750.06323,156.55458 905.85394,420.21783 623.35754,587.13647 Z" /></clipPath><clipPath
       id="clipPath224"
       clipPathUnits="userSpaceOnUse"><path
         id="path222"
         d="M 467.56686,323.47321 750.06323,156.55458 905.85394,420.21783 623.35754,587.13647 Z" /></clipPath><clipPath
       id="clipPath230"
       clipPathUnits="userSpaceOnUse"><path
         id="path228"
         d="m 851.03149,391.20624 11.05481,-6.53198 27.23072,46.08584 -11.05481,6.53198 z" /></clipPath><clipPath
       id="clipPath242"
       clipPathUnits="userSpaceOnUse"><path
         id="path240"
         d="M 0,0 H 1562.5 V 1562.5 H 0 Z" /></clipPath><clipPath
       id="clipPath248"
       clipPathUnits="userSpaceOnUse"><path
         id="path246"
         d="M 0,0 H 1562.5 V 1562.5 H 0 Z" /></clipPath><clipPath
       id="clipPath254"
       clipPathUnits="userSpaceOnUse"><path
         id="path252"
         d="M 467.56686,323.47321 750.06323,156.55458 905.85394,420.21783 623.35754,587.13647 Z" /></clipPath><clipPath
       id="clipPath260"
       clipPathUnits="userSpaceOnUse"><path
         id="path258"
         d="M 467.56686,323.47321 750.06323,156.55458 905.85394,420.21783 623.35754,587.13647 Z" /></clipPath></defs><g
     clip-path="url(#clipPath14)"
     transform="matrix(1.3333333,0,0,-1.3333333,0,510.71997)"
     id="g10"><g
       transform="matrix(0.23999999,0,0,-0.23999999,0,383.03998)"
       id="g16"><g
         id="g18"><g
           clip-path="url(#clipPath24)"
           id="g20"><g
             transform="scale(3.125)"
             id="g26"><path
               id="path28"
               style="fill:#ffffff;fill-opacity:1;fill-rule:nonzero;stroke:none"
               d="M 0,0 H 500 V 500 H 0 Z" /></g></g></g><g
         id="g30"><g
           clip-path="url(#clipPath36)"
           id="g32"><g
             transform="scale(3.125)"
             id="g38"><path
               id="path40"
               style="fill:#ffffff;fill-opacity:1;fill-rule:nonzero;stroke:none"
               d="M 0,0 H 500 V 500 H 0 Z" /></g></g></g><g
         id="g42"><g
           clip-path="url(#clipPath48)"
           id="g44"><g
             clip-path="url(#clipPath54)"
             id="g50"><g
               clip-path="url(#clipPath60)"
               id="g56"><g
                 clip-path="url(#clipPath66)"
                 id="g62"><g
                   transform="matrix(0.60246438,-0.50909948,0.50909948,0.60246438,-599.63245,1106.6278)"
                   id="g68"><path
                     id="path70"
                     style="fill:#5e17eb;fill-opacity:1;fill-rule:nonzero;stroke:none"
                     d="m 1445.4624,797.25916 v 2.4e-4 9.8e-4 c -2e-4,-9.8e-4 0,-0.001 0,-0.001 z m 0,0.0101 0.091,0.0721 -0.1062,0.0265 c 0,0 0,-7.3e-4 -0.011,-0.002 l 0.011,9.8e-4 0.015,-0.098 z m 3.1937,-46.93317 c -0.6004,0 -1.39,0.0537 -2.3957,0.20313 -1.3883,0.20642 -3.8937,0.61859 -7.338,1.18585 l -4e-4,1.2e-4 -0.014,0.002 v 4.9e-4 l -0.1443,0.0238 -0.1466,0.024 c -23.5783,3.88232 -89.1468,14.66418 -133.0714,14.66431 -2.9767,-7e-5 -5.8736,-0.0501 -8.6305,-0.15387 v -1.3e-4 l -0.013,9.8e-4 c -0.046,-9.8e-4 -0.087,0.0272 -0.1029,0.07 -0.016,0.0426 0,0.0909 0.03,0.12133 1.6505,1.47083 3.034,3.32349 3.9733,5.63782 v 2.5e-4 c 2.8209,6.94995 2.2756,13.42248 -1.3226,18.55835 -0.024,0.0336 -0.027,0.0775 -0.01,0.11389 0.014,0.0278 0.04,0.0477 0.069,0.0555 l -0.013,9.8e-4 c 0.2013,0.24072 0.3675,0.51843 0.4875,0.828 l 3e-4,4.9e-4 v 0.004 c 2.1951,5.6499 4.2171,10.50818 6.0097,14.61609 0.018,0.0407 0.058,0.066 0.1009,0.066 0.01,0 0.015,-7.3e-4 0.023,-0.002 0.012,-0.003 0.024,-0.007 0.034,-0.0133 v 9.8e-4 c 0.3682,-0.21314 0.7917,-0.34265 1.2457,-0.36292 5.2188,-0.23169 9.9278,-0.3258 14.1536,-0.32593 8.2787,7e-5 14.7304,0.36042 19.6605,0.75214 2.4363,0.19348 4.5085,0.39563 6.2078,0.56238 l 0.01,9.8e-4 c 1.2434,0.12036 2.2244,0.21618 3.0997,0.28576 v 8.6e-4 l 4e-4,-8.6e-4 c 1.4514,0.11548 3.8201,0.30408 7.2565,0.60633 l -3e-4,8.5e-4 3e-4,-8.5e-4 1.0372,0.0923 0.012,9.8e-4 c 0.038,0.002 0.087,0.007 0.087,0.007 l -2e-4,9.8e-4 c 0.01,0 0.019,7.3e-4 0.034,0.002 l 2e-4,9.8e-4 c 3.3491,0.29382 8.9789,0.78882 17.0651,1.47357 l -3e-4,10e-4 5e-4,-9.8e-4 c 1.3772,0.1167 2.9613,0.23963 4.8767,0.38001 v 9.7e-4 l 3e-4,-9.7e-4 c 9.2576,0.67944 15.8656,1.16589 19.4092,1.44128 0,3.7e-4 0.01,3.7e-4 0.01,3.7e-4 l 0.01,10e-4 c 2.9182,0.22535 5.8367,0.48414 8.6216,0.74415 l 0.01,9.7e-4 c 0.011,0 0.099,0.008 0.099,0.008 l -6e-4,9.8e-4 c 1.3666,0.11878 4.1566,0.24133 7.7902,0.39929 l -3e-4,9.8e-4 0.019,-1.2e-4 0.019,9.7e-4 3e-4,9.8e-4 c 4.5035,0.1947 10.1825,0.44141 15.8235,0.81439 0,2.5e-4 0,2.5e-4 0.01,2.5e-4 0.028,0 0.055,-0.0105 0.075,-0.0297 0.022,-0.0209 0.034,-0.0499 0.034,-0.0804 v -8.5e-4 l -0.01,-0.0469 c -0.1255,-0.26709 -0.2438,-0.53467 -0.359,-0.81262 l -0.01,-0.0124 -3e-4,-3.7e-4 9e-4,8.5e-4 c -3.5874,-8.66241 -3.5166,-21.69439 -0.1844,-38.393 v -0.0216 -9.7e-4 9.7e-4 c 1.7118,-8.56213 5.0568,-15.36572 11.2007,-15.36578 0.3156,0 0.6347,0.0176 0.9658,0.0539 7.9058,0.86805 8.2154,14.26142 6.459,30.25776 l -6e-4,0.0121 -6e-4,9.8e-4 c -0.1741,1.57971 -0.3714,3.20556 -0.598,4.91748 l -9e-4,0.0145 -9e-4,9.8e-4 c -0.3508,2.59839 -2.4345,3.5708 -4.2258,3.5708 -0.2124,0 -0.4208,-0.0138 -0.6212,-0.0403 l -0.013,-9.8e-4 h -0.01 l 3e-4,10e-4 v -1.2e-4 -0.002 l 0.01,10e-4 c -0.01,-0.002 -0.01,-0.003 -0.012,-0.003 l 3e-4,0.001 c 0,-0.001 -0.017,-0.003 -0.023,-0.004 l -0.034,-0.005 9e-4,1.3e-4 -9.975,-1.54676 -0.017,-10e-4 -0.014,9.8e-4 c -0.061,-9.8e-4 -0.11,0.0482 -0.11,0.10876 -0.01,5.98023 0.7811,10.75342 2.274,14.35297 0.01,0.0175 0.019,0.0324 0.033,0.0437 l -0.014,9.8e-4 c 0.095,0.22534 0.1848,0.42492 0.2846,0.63379 l 6e-4,9.7e-4 c 1.1558,2.40338 2.5924,3.60382 4.4941,3.60382 0.9182,1.2e-4 1.9335,-0.28003 3.0636,-0.82312 7.1465,-3.43396 11.2777,-8.38916 13.2726,-14.00769 3.1285,-8.81262 4.1573,-18.80438 1.9763,-29.97998 -2.2649,-11.60321 -6.317,-17.42108 -10.5627,-19.12115 v 9.7e-4 c -0.01,-0.004 -0.011,-0.007 -0.017,-0.009 -0.2246,-0.0893 -0.6831,-0.16943 -1.4173,-0.16943 z" /><path
                     id="path72"
                     style="fill:#5e17eb;fill-opacity:1;fill-rule:nonzero;stroke:none"
                     d="m 1282.4481,766.87006 c -3.9752,-1.3e-4 -7.6927,1.7536 -10.8567,5.90399 -1.947,2.55408 -2.291,6.32269 -0.1034,11.45306 l 3e-4,9.8e-4 c 1.8596,4.35827 5.3797,7.37439 10.6808,8.56409 l 2e-4,9.7e-4 c 0.961,0.2146 1.9004,0.32227 2.8126,0.32227 3.2641,0 6.1929,-1.37342 8.7289,-4.04126 v -1.2e-4 c 3.4602,-3.64051 4.5388,-8.61219 2.0185,-14.85376 l -0.01,9.7e-4 -0.01,-0.0424 c -1.8003,-4.43457 -6.5085,-6.64453 -11.9398,-7.28051 v -3.7e-4 l -0.013,-10e-4 -0.017,1.2e-4 c -0.069,0.005 -0.141,0.008 -0.2117,0.008 -0.059,0 -0.12,-0.002 -0.1798,-0.006 -0.3013,-0.0195 -0.6002,-0.0293 -0.8991,-0.0293 z" /><path
                     id="path74"
                     style="fill:#5e17eb;fill-opacity:1;fill-rule:nonzero;stroke:none"
                     d="m 1256.0896,844.15869 -2e-4,2.5e-4 v -2.5e-4 z m 38.8473,-48.85187 -0.064,0.021 c -2.9262,2.12463 -6.2703,3.27161 -9.8852,3.27161 -1.3052,0 -2.6463,-0.14954 -4.0161,-0.45691 l -4e-4,9.7e-4 v -0.002 c -1.7257,-0.38733 -3.332,-0.93518 -4.81,-1.63111 l -0.039,-0.0101 -0.013,-9.8e-4 c 0,-2.4e-4 -0.01,-2.4e-4 -0.01,-2.4e-4 -0.054,0 -0.1006,0.0394 -0.1085,0.0936 -2.293,15.31183 -10.4055,32.88476 -19.9916,47.39484 -0.022,0.0338 -0.024,0.0771 -0.01,0.11279 0.018,0.0328 0.05,0.0543 0.087,0.0575 l -0.012,9.8e-4 c 0.01,2.4e-4 0.013,9.8e-4 0.02,9.8e-4 0.02,0 0.04,-0.006 0.059,-0.0176 l 6e-4,8.5e-4 c 8.5163,-5.19305 15.2815,-12.06488 20.3464,-20.6181 0.423,-0.71448 1.1243,-1.21985 1.9359,-1.39417 0,-2.4e-4 0,-6.1e-4 0,-9.7e-4 v 9.7e-4 c 0.301,-0.0659 0.5823,-0.0953 0.8442,-0.0953 2.3281,0 3.2495,2.33667 3.432,2.94812 l 5e-4,0.002 9e-4,0.003 3e-4,9.8e-4 c 0.047,0.1604 0.091,0.33655 0.1255,0.4939 l 3e-4,4.9e-4 v 0.005 l -2e-4,-7.3e-4 v 0.0151 l 2e-4,10e-4 v 0.005 c 1.0867,5.11597 1.9271,8.35889 2.505,9.94397 0.01,0.0171 0.016,0.0319 0.029,0.0436 l -0.013,9.8e-4 v 0.006 c 0.7718,2.09436 1.5937,4.20397 2.7094,6.32556 l 6e-4,0.001 c 1.4963,2.8413 3.0957,5.45007 4.8079,7.79809 0.021,0.0289 0.054,0.0452 0.089,0.0452 0.011,0 0.023,-0.002 0.034,-0.005 0.045,-0.0149 0.076,-0.057 0.076,-0.10462 v -9.7e-4 -0.004 c -0.1838,-5.24182 -0.3057,-13.38574 -0.253,-24.33972 0.01,-1.30506 0.8611,-2.45435 2.1092,-2.83631 0.2878,-0.088 0.5825,-0.13073 0.872,-0.13073 0.9671,0 1.8975,0.47229 2.463,1.30127 5.714,8.37512 13.3996,15.23303 23.1313,20.54882 0.016,0.009 0.034,0.0136 0.053,0.0136 0.017,0 0.034,-0.004 0.05,-0.0122 0.032,-0.0166 0.054,-0.0481 0.059,-0.0842 v -9.8e-4 l -0.021,-0.0793 c -7.9767,-10.71643 -12.5972,-17.66675 -14.1442,-20.6944 l -6e-4,-10e-4 v -1.2e-4 -0.004 l -4e-4,-9.8e-4 v 9.8e-4 l -0.014,-0.0199 -8e-4,-10e-4 0.01,9.8e-4 c -2.3162,-4.53638 -6.747,-13.62665 -12.3173,-27.80231 l -0.01,9.8e-4 c 0,-0.0618 -0.049,-0.11097 -0.11,-0.11097 h -0.013 z" /><path
                     id="path76"
                     style="fill:#5e17eb;fill-opacity:1;fill-rule:nonzero;stroke:none"
                     d="m 1147.0238,752.51837 -2e-4,7.3e-4 -0.017,9.8e-4 c 0,-10e-4 0,-10e-4 0.01,-0.002 h 0.011 z m -19.9921,-9.96374 c -2.3443,0 -6.6191,2.69079 -10.6478,12.12256 l -0.01,0.0432 -0.01,0.001 c -5.8436,13.69372 -5.6614,19.08032 -3.0576,45.20013 l 10e-5,9.8e-4 8e-4,0.007 0.01,9.8e-4 v 10e-4 l -0.011,0.001 c 0,0.012 0.01,0.024 0.014,0.0348 l -0.011,9.8e-4 c 1.3294,13.28308 4.6352,19.5387 7.8738,21.36206 0.017,0.01 0.035,0.0143 0.054,0.0143 0.01,0 0.012,-6.1e-4 0.017,-10e-4 l -0.01,9.7e-4 c 10.4545,-0.91638 123.5528,-10.79125 144.9607,-11.40875 0.037,-10e-4 0.044,-10e-4 0.081,-10e-4 0.038,0 0.071,4.9e-4 0.1062,0.003 0,2.5e-4 0,2.5e-4 0.01,2.5e-4 0.028,0 0.055,-0.0105 0.076,-0.0298 0.022,-0.0208 0.035,-0.0498 0.035,-0.0802 v -9.7e-4 l 0.01,9.7e-4 c 2.0561,-5.99219 3.4537,-11.84668 3.9524,-17.24475 l 0.01,9.8e-4 c 0.015,-0.0409 0.01,-0.0859 -0.024,-0.11658 -1.6638,-1.71179 -3.0056,-3.74121 -3.9952,-6.0481 l -0.01,9.8e-4 -0.01,-0.0442 c -2.6129,-6.12744 -2.8116,-12.20587 0.7866,-16.92657 0.7515,-0.9856 1.5387,-1.87702 2.3633,-2.67963 l -0.013,9.8e-4 c 0.051,-0.0117 0.088,-0.057 0.087,-0.11011 -9e-4,-0.058 -0.047,-0.10559 -0.1048,-0.1084 -33.6671,-1.62774 -109.9351,-12.08417 -114.4948,-12.78241 l -0.011,0.001 c -0.01,-0.004 -0.015,-0.006 -0.024,-0.007 -1.311,-0.203 -2.8783,-0.4436 -3.7964,-0.58435 l -0.017,-0.003 -5e-4,-1.2e-4 -0.2783,-0.0426 -0.3816,-0.0586 c -1.7464,-0.26801 -2.9632,-0.45587 -3.503,-0.55951 l -0.011,9.8e-4 c 0,-0.002 0,-0.003 -0.01,-0.004 v 9.8e-4 c -0.01,-0.002 -0.011,-0.003 -0.016,-0.004 l -0.021,-0.002 -0.011,9.7e-4 c -0.01,-9.7e-4 -0.014,-2.4e-4 -0.021,10e-4 v 9.8e-4 c -0.053,-0.0122 -0.1425,-0.0344 -0.2578,-0.0706 l -0.011,8.6e-4 c -0.012,-0.011 -0.026,-0.0186 -0.042,-0.0227 l -2.4706,-0.64783 -0.028,-0.004 -0.011,10e-4 c -0.035,-10e-4 -0.067,0.0153 -0.088,0.043 -0.021,0.0277 -0.027,0.0636 -0.018,0.0968 2.4759,8.49194 2.6358,21.66583 0.4822,39.06586 -0.8606,6.94995 -2.2159,11.79248 -3.661,14.22473 l 10e-5,9.8e-4 -10e-5,-8.6e-4 c -1.4546,2.44788 -2.9874,4.56921 -4.7413,5.53491 -0.6837,0.37659 -1.4512,0.6023 -2.2399,0.6023 -0.6967,0 -1.4115,-0.17554 -2.1053,-0.58142 l -0.01,10e-4 -0.021,-0.0178 c -0.2147,-0.1278 -0.4184,-0.27404 -0.5978,-0.42236 l -6e-4,-4.9e-4 c -7.3644,-6.09546 -8.7358,-32.73199 -5.4768,-43.06476 l 0.01,-0.0331 v -9.7e-4 l 0.01,9.7e-4 c 0.2799,-0.88562 0.5577,-1.66614 0.8219,-2.22314 0.013,-0.0281 0.014,-0.0603 0,-0.0888 l -0.011,9.8e-4 c 0.2059,-0.42651 1.1423,-1.87207 2.7185,-1.87195 0.2712,0 0.5636,0.0426 0.8763,0.14234 v 8.5e-4 c 1.3674,0.43237 1.817,1.59778 1.9523,2.33618 0.01,0.0303 0.023,0.0555 0.047,0.0715 l -0.011,9.8e-4 4.6448,12.96405 c 0.016,0.0443 0.058,0.0729 0.1034,0.0729 0,0 0.01,-2.5e-4 0.015,-9.8e-4 l -0.012,8.6e-4 c 0.6711,-0.0182 1.7425,-0.11915 3.3081,-0.37989 v 9.8e-4 c 0.054,-0.006 0.097,-0.0492 0.1006,-0.10364 0.7472,-11.6922 0.052,-20.21832 -1.7727,-25.66644 l -0.01,9.7e-4 -0.01,-0.0361 c -2.3029,-6.84118 -6.166,-9.70373 -11.3284,-9.88305 -0.034,-10e-4 -0.068,-0.002 -0.1034,-0.002 z" /><path
                     id="path78"
                     style="fill:#5e17eb;fill-opacity:1;fill-rule:nonzero;stroke:none"
                     d="m 1264.4805,728.02368 c -0.1725,0 -0.3465,0.004 -0.5219,0.012 -0.011,4.9e-4 -0.021,0.003 -0.031,0.006 l -0.013,9.7e-4 c -0.8543,0.11176 -1.6224,0.27875 -2.3043,0.5011 -4.1611,1.35645 -5.0659,5.64124 -2.7142,12.85437 0.01,0.0193 0.017,0.0358 0.032,0.0486 l -0.013,9.7e-4 c 2.01,5.51239 5.0496,10.19654 9.1189,14.05231 v 9.8e-4 c 3.8416,3.55346 6.5082,5.3302 7.9998,5.3302 0.2053,0 0.3899,-0.0328 0.5537,-0.0984 0.3631,-0.14514 0.738,-0.21399 1.1061,-0.21399 0.1868,0 0.374,0.0179 0.5549,0.0535 0.01,0.001 0.014,0.002 0.021,0.002 0.025,0 0.05,-0.009 0.07,-0.0252 0.025,-0.0209 0.04,-0.052 0.04,-0.0848 v -9.7e-4 9.7e-4 c 1.7257,-8.18805 1.0743,-15.93762 -1.9539,-23.24859 l -0.013,9.7e-4 c 0,-0.0232 6e-4,-0.0463 -0.01,-0.067 -2.9474,-6.08393 -6.9234,-9.12586 -11.9276,-9.12586 z" /><path
                     id="path80"
                     style="fill:#5e17eb;fill-opacity:1;fill-rule:nonzero;stroke:none"
                     d="m 1142.4996,732.83441 c -0.035,0 -0.068,0.0167 -0.089,0.045 -0.021,0.0282 -0.027,0.0646 -0.016,0.098 1.8669,5.92236 3.0155,10.54968 2.9608,13.34472 -6e-4,0.0311 0.012,0.061 0.035,0.0824 0.02,0.0192 0.047,0.0298 0.075,0.0298 l 8e-4,9.7e-4 2.4093,0.63269 -0.011,9.8e-4 c 0.01,0.004 0.016,0.006 0.016,0.006 l 10e-5,8.5e-4 c 0.03,0.0105 0.095,0.028 0.2003,0.0505 v 9.7e-4 c 0.2797,0.0596 1.5346,0.25391 3.971,0.62775 h 2e-4 l 0.011,0.002 c 1.0814,0.16589 2.3265,0.35681 3.8108,0.58777 l 0.01,9.7e-4 c 4.0848,0.63074 73.3802,10.1305 108.8101,12.43573 0,1.3e-4 0.01,2.5e-4 0.01,2.5e-4 0.028,0 0.055,-0.0106 0.075,-0.0298 0.022,-0.0208 0.035,-0.0498 0.035,-0.0802 v -9.7e-4 l -0.037,-0.0822 c -0.2687,-0.23926 -0.5392,-0.48504 -0.8116,-0.7373 v 9.7e-4 l -0.026,-0.0251 c -1.9111,-1.81061 -3.6264,-3.77411 -5.1458,-5.89044 l -0.012,9.7e-4 c 3e-4,-0.0541 -0.037,-0.1 -0.09,-0.10962 -1.6313,-0.2976 -4.57,-0.70398 -10.368,-1.4552 l -0.012,10e-4 c -0.01,-0.004 -0.015,-0.005 -0.023,-0.006 -0.023,-0.003 -0.033,-0.004 -0.037,-0.005 l -3e-4,9.8e-4 c 0,-9.8e-4 -0.01,-0.002 -0.04,-0.006 l -2e-4,-1.2e-4 c -1.4757,-0.19128 -3.3374,-0.43127 -5.2173,-0.67261 l -0.012,9.8e-4 v -0.004 l -0.6679,-0.0862 3e-4,9.8e-4 c -2.5703,-0.33228 -5.0177,-0.64771 -8.2255,-1.06385 l -0.012,9.8e-4 -0.01,-0.004 c -6.1219,-0.79419 -10.794,-1.57886 -14.0045,-2.23584 -15.3369,-3.13837 -32.9053,-6.56739 -52.7518,-10.17353 v -3.6e-4 l -10e-4,-1.2e-4 -3e-4,9.7e-4 c -3.5536,-0.64685 -9.4087,-1.9812 -17.5072,-3.83996 l -0.011,8.5e-4 -0.02,-0.008 -1.7052,-0.39148 v 9.8e-4 l -1.8377,-0.42188 v 9.8e-4 c 0,-10e-4 0,-10e-4 0,-0.002 0,0 -9e-4,-1.2e-4 0,-9.8e-4 v -2.4e-4 9.8e-4 c 0,-9.8e-4 -0.01,-0.003 -0.01,-0.003 l -9e-4,-2.5e-4 c -0.01,-10e-4 -0.016,-0.004 -0.025,-0.006 l -0.011,9.8e-4 c -0.01,-0.005 -0.015,-0.007 -0.024,-0.009 -1.368,-0.31409 -2.5709,-0.48999 -3.6186,-0.60828 l -0.012,-7.3e-4 h -0.011 z" /><path
                     id="path82"
                     style="fill:#5e17eb;fill-opacity:1;fill-rule:nonzero;stroke:none"
                     d="m 1446.7932,735.69781 v 1.3e-4 c -0.1,0.003 -0.2068,0.007 -0.322,0.0148 l -0.014,9.7e-4 c -9e-4,-9.7e-4 0,-8.5e-4 0,-8.5e-4 -0.1003,0.006 -0.09,0.005 -0.1551,0.009 l 2e-4,9.8e-4 c -0.018,0 -0.087,0.004 -0.087,0.004 l 6e-4,9.8e-4 -0.01,2.4e-4 -0.014,9.8e-4 c -0.9471,0.0509 -2.2764,0.12744 -4.0453,0.5534 -13.0514,3.14331 -25.6078,6.01392 -37.7323,8.22217 -13.3629,2.43353 -27.5181,4.75653 -42.5174,6.77313 -21.5286,2.89435 -38.1166,4.23383 -50.304,4.23383 -2.8539,0 -5.4656,-0.0734 -7.8439,-0.21649 l 5e-4,10e-4 -0.013,-0.002 -0.084,0.0294 c -2.0752,1.94342 -4.3075,3.70197 -6.6969,5.27564 -0.04,0.0267 -0.059,0.0769 -0.045,0.12353 0.014,0.0465 0.057,0.0784 0.1052,0.0784 l 0.012,9.8e-4 c 2.7436,0.10522 5.6045,0.15551 8.5741,0.15558 43.4064,-1.3e-4 108.8222,-10.75733 132.4138,-14.64167 v -1.2e-4 c 0.01,-0.002 0.019,-0.003 0.026,-0.004 l 3e-4,9.7e-4 c 0,-9.7e-4 0.016,-0.004 0.068,-0.0123 0.01,-0.002 0.019,-0.003 0.027,-0.004 l -6e-4,9.8e-4 c 0,-9.8e-4 0.016,-0.004 0.068,-0.0121 l 3e-4,8.6e-4 c 2.336,-0.3855 4.267,-0.70325 5.6964,-0.92981 l 0.01,0.001 c 0.047,-0.004 0.088,-0.0378 0.099,-0.0841 0.017,-0.0674 0.038,-0.13953 0.06,-0.20679 1.577,-4.70446 2.4742,-7.69238 2.8514,-9.23156 0.01,-0.0328 6e-4,-0.0675 -0.02,-0.0941 -0.021,-0.0266 -0.053,-0.0421 -0.087,-0.0421 h -0.014 z" /><path
                     id="path84"
                     style="fill:#5e17eb;fill-opacity:1;fill-rule:nonzero;stroke:none"
                     d="m 1302.4631,733.8443 c -1.8115,0 -4.0423,1.3587 -6.6926,4.07605 -0.016,0.0162 -0.026,0.0364 -0.03,0.0577 l -0.013,9.7e-4 c -4.8744,5.71637 -8.555,13.07148 -11.0422,22.06519 -0.01,0.0331 0,0.0686 0.019,0.096 v 8.5e-4 c 0.017,0.0226 0.044,0.0389 0.075,0.0427 0,6.1e-4 0.01,8.5e-4 0.014,8.5e-4 0.015,0 0.03,-0.003 0.043,-0.009 v 9.8e-4 c 7.3947,-2.91498 13.5347,-7.27887 18.4201,-13.0918 l -0.013,10e-4 0.047,-0.0283 c 2.9086,-4.26715 3.5647,-8.17688 1.9685,-11.72912 l -0.013,9.7e-4 c 0.01,-0.036 -3e-4,-0.0735 -0.025,-0.10095 -0.117,-0.1319 -0.2343,-0.25519 -0.3519,-0.36987 -0.6934,-0.67645 -1.4941,-1.01465 -2.4025,-1.01465 z" /><path
                     id="path86"
                     style="fill:#5e17eb;fill-opacity:1;fill-rule:nonzero;stroke:none"
                     d="m 1129.7932,775.69971 c -0.057,0 -0.1048,0.0438 -0.1095,0.10071 -0.9,10.5216 0.9996,25.18615 4.2625,29.53356 0.021,0.0282 0.054,0.0439 0.088,0.0439 0.011,0 0.023,-0.002 0.034,-0.006 0.019,-0.006 0.036,-0.0179 0.049,-0.0326 l -8e-4,9.8e-4 c 0.456,-0.51819 1.1299,-1.4231 2.0331,-2.94226 l 3e-4,-9.8e-4 -10e-5,8.6e-4 c 0.8294,-1.39673 2.0872,-5.26795 2.9326,-12.09766 0.2702,-2.1792 0.5028,-4.29419 0.6956,-6.31018 0,-0.0292 -0.01,-0.0584 -0.025,-0.0809 -0.019,-0.0225 -0.046,-0.0366 -0.075,-0.0391 l -0.011,-9.7e-4 -0.024,6.1e-4 c -1.0867,0.1477 -2.0832,0.23413 -2.9682,0.23413 -0.7162,0 -1.3485,-0.0565 -1.8902,-0.18164 l -5e-4,9.7e-4 c 0,-0.003 -0.01,-0.004 -0.014,-0.005 -0.7144,-0.16845 -2.256,-0.70959 -2.7912,-2.34985 l 0.01,9.8e-4 c -3e-4,-0.002 -8e-4,-0.004 0,-0.005 l -2.0755,-5.79187 c -0.016,-0.0438 -0.057,-0.073 -0.1035,-0.073 h -0.011 z" /><path
                     id="path88"
                     style="fill:#5e17eb;fill-opacity:1;fill-rule:nonzero;stroke:none"
                     d="m 1443.6543,763.98004 c -1.4509,-6e-5 -4.1122,1.61762 -5.9753,10.95404 v 3.7e-4 l -7e-4,0.002 -3e-4,10e-4 3e-4,8.6e-4 v 0.0145 9.8e-4 c -1.114,5.58569 -1.8241,10.62231 -2.1611,15.10986 0,0.0269 0.01,0.0535 0.026,0.0732 0.018,0.0198 0.044,0.031 0.071,0.031 l 0.01,9.8e-4 9.3274,1.44739 c 0,7.3e-4 0.01,10e-4 0.015,10e-4 0.023,0 0.045,-0.008 0.063,-0.0233 0.022,-0.0186 0.034,-0.0454 0.034,-0.0737 v -9.8e-4 l 8e-4,9.8e-4 c 0.1405,-1.1178 0.2795,-2.29383 0.3942,-3.33631 l 5e-4,-0.0106 v -9.7e-4 l 6e-4,9.7e-4 c 2.1432,-19.52636 -0.4867,-24.06085 -1.5949,-24.18255 -0.065,-0.007 -0.1319,-0.011 -0.2032,-0.011 z" /></g></g></g></g></g></g><g
         id="g90"><g
           clip-path="url(#clipPath96)"
           id="g92"><g
             transform="matrix(0.19498289,0,0,0.1951953,491.7019,303.1333)"
             id="g98"><path
               id="path100"
               style="fill:#040606;fill-opacity:1;fill-rule:nonzero;stroke:none"
               d="m 2391.8281,1861.3516 c 23.7813,-51.5625 14.8321,-112.3125 23.5821,-167.2305 1.4609,-1.9805 3.6992,-0.7422 6.7187,2.5898 18.8399,23.0586 38.3594,54.1797 50.1094,82.5196 14.332,40.4609 18.9023,36.2187 21.6523,-5.3516 4.8399,-107.9883 -35.0625,-225.207 -94.6093,-314.1484 -9.4922,-23.9297 81.4101,50.039 90.3398,56.9179 4.4805,2.1797 8.8086,3.6524 6.5898,-4.6484 -45.3593,-129.5391 -182.9218,-256.4687 -312.7304,-312.5391 -8.5821,-2.9726 16.7578,20.0977 29.6406,34.0586 4.8789,4.9102 99.3086,105.2188 59.0391,88.1797 -23.4102,-10.0195 -117.5313,-49.5898 -52.7305,1.5625 49.6484,47.5586 111.9414,134.2969 125.0703,193.1172 1.5703,20.6328 -22.9805,-2.6875 -30.7305,-6.4101 -11.8007,-7.668 -28.2812,-17.3204 -39.7382,-21.8204 -9.3204,-3.8281 -13.9415,-4.3476 -12.3321,0.1602 80.1094,102.2305 114.9102,235.8203 108.5703,367.4023 0.1407,38.0899 -2.7578,63.8789 19.1993,11.1993 z m -98.5664,1669.1289 c 1.25,-77.5313 34.5078,-153.8594 114.7578,-181.1602 19.6914,-10.1797 55.5586,-10.4805 60.4024,-34.9297 -0.2227,-33.0703 -25.3516,-118.1289 -54.0508,-158.2812 -13.1211,-9.1485 -16.4023,41.9219 -35.8711,17.7422 -33.3594,-43.3125 -61.8398,-115.3321 -76.3906,-164.043 -7.1211,-8.2891 -17.4688,11.8008 -26.2696,14.8125 -4.1601,1.5781 -8.3007,0.3906 -12.5507,-3.1016 -27.6289,-30.5507 -43.7891,-76.3711 -59.2696,-116.6484 -2.8593,-5.6406 -7.3906,-15.6211 -14.7187,-10.9023 -8.9805,5.1406 -16.9024,25.4531 -27.9219,11.4296 -25.207,-35.6601 -49.9805,-89.5976 -70.6601,-131.7382 -6.1797,-12.9414 -11.2305,-21.9102 -13.7071,-19.8789 -12.1015,61.5 6.6094,156.0585 4.668,220.5976 1.0586,18.4609 -34.5195,-17.4297 -46.1602,-25.8203 -6.0586,-4.5273 -9.8476,-5.3203 -11.539,-0.2188 -2.1719,30.7618 2.8086,84.0118 3.5508,119.3516 1.039,23.6367 2.9492,43.5078 -5.3594,39.4375 -8.793,-2.7695 -33.4024,-30.4883 -46.3828,-36.6797 -4.9493,-2.3086 -5.7383,1.1797 -5.7774,9.1016 0.6094,31.3398 2.8985,92.3281 4.5977,129.539 0.4492,107.7891 23.1914,208.4219 -66.0078,276.1094 -27.0235,25.5 -68.8008,21.0313 -113.5,23.3399 -73.3516,1.2226 -148.3907,1.8906 -222.1524,1.832 -33.3476,-2.1523 -54.8789,3.9883 -62.0273,-4.2695 19.6797,-52.461 36.2969,-133.5899 37.5781,-195.8633 10.0586,-42.0195 46.4297,-84.0664 61.3516,-123.918 49.6484,-67.4414 99.5468,-122.8906 114.1992,-214.0312 5.539,-24.3789 14.2383,-44.5782 29.3711,-63.3282 44.9687,-49.5117 62.0078,-148.9726 60.1172,-229.7109 0.3203,-28.0312 4.6601,-52.5703 16.4023,-77.2617 27.5586,-58.7578 34.6172,-181.7383 22.7578,-265.1602 -1.4883,-17.0976 5.3516,-11.5195 12.3516,-5.3476 38.4805,31.9101 31.9687,-141.9219 32.6601,-167.0508 0.4375,-45.7188 -2.6796,-88.0313 -8.9492,-128.7383 0.09,-8.0703 8.9375,-1.0508 21.2578,13.4492 12.1797,13.8985 21.7813,25 25.5703,21.1992 8.129,-14.2617 7,-29.789 10.0391,-48.5703 10.3399,-104.5312 2.582,-183.4297 -19.5508,-269.0195 -7.7968,-30.7695 -12.9687,-50.3281 23.0313,-7.7891 8.5312,8.168 42.9101,59.2579 44.0508,34.7305 3.3086,-42.582 -0.7891,-92.332 -5.5313,-136.4297 -6.3398,-71.8008 -36.5391,-161.6523 -52.6601,-226.7304 9.25,-3.6329 73.6015,81.7382 93,116.707 3.4414,5.4101 9.6796,14.7305 10.25,1.4922 -0.9883,-112.6524 -70.5782,-238.7305 -150.9571,-344.9414 -8.1406,-11.5391 -15.9609,-22.3789 -19.1211,-28.0899 -13.7695,-26.0078 92.1797,48.8399 85.668,41.2891 6.6406,-0.1602 2.5117,-5.3672 -1.5273,-15.207 -43.3204,-99.3711 -152.8829,-227.2813 -230.0899,-286.23052 -5.9726,-5.91015 -17.7305,-11.33203 -10.3125,-18.53906 2.3594,-1.80078 6.6406,-3.51172 12.1914,-5.07031 123.4414,-28.41016 261.8516,-29.03125 382.6406,10.61718 5.9883,3.32032 8.1797,6.92188 5.2188,10.64063 -3.25,3.0625 -1.3711,2.55078 -14.3086,9.44141 -18.0195,9.19921 -29.2305,18.14062 -3.3203,21.57031 97.0273,7.84765 232.3984,58.14844 304.3906,109.59766 16.1094,14.7031 -3.4609,17.7227 -28.9531,23.0625 -31.8867,6.8906 -43.3477,12.25 -15.4492,18.168 102.5,20.6406 222.8593,70.9922 284.5312,151.1797 2.168,9.0117 -81.7305,-7.7579 -55.1484,17.1914 83.1289,50.7812 166.7383,114.1992 212.7265,201.6015 2.2813,18.9297 -77.0976,-9.1211 -61,16.3086 59.2618,47.3281 131.1133,115.4883 165.0704,180.8203 1.8007,4.5508 6.0195,12.7891 2.371,16.668 -3.3398,6.6211 -27.2695,-0.7188 -41.0195,0.1914 -27.1094,4.1602 23.2891,45.7617 29.3516,58.4492 42.4297,59.6094 83.7578,116.0625 83.5664,164.4492 -8.2891,9.4024 -32.0586,-5.9492 -42.2188,-5.3789 -15.1992,-1.4297 -9.1093,10.8594 -4.0078,19.75 40.8086,64.9102 68.3477,138.5703 71.4883,207.3711 -0.4883,6.6602 -2.9883,9.6094 -8.6016,8.4297 -8.4765,-0.8398 -61,-41.0703 -51.8086,-15.2305 36.1602,86.0508 54.6915,180.1993 51.7188,276.8399 -2.1875,17.1719 -32.1797,-24.9609 -46.1797,-34.3906 -1.2891,-0.7774 -3.8789,-2.3477 -5.168,-3.1407 -5.3593,-1.8671 -3.7304,6.4219 -4.0703,9.4414 13.168,72.6407 36.8789,163.2305 23.5,226.961 -7.5625,17.6289 -23.6797,-13.461 -33.332,-21.8399 -18.0977,-18.6796 -35.0078,-38.4296 -32.2305,-20.8007 12.2735,67.4804 38.5117,193.0507 48.1719,251.3984 8.5508,44.5117 1.8906,43.5117 -34.5195,13.332 -44.5586,-34.25 -20.4922,10.1992 -10.25,42.211 6.0508,24.5195 83.3281,196.7578 38.2187,174.8672 -26.2695,-13.0782 -59.2383,-45.9571 -36.3476,8.0195 46.4765,101.1406 55.1875,198.2617 50.707,312.3515 4.6328,91.75 -50.207,159.8711 -136.5078,188.0899 -15.582,5.0312 -22.6524,6.7617 -35.6524,7.582 -82,3.0391 -448.6679,10.75 -483.4296,0.6875 z M 1102.6016,381.05078 c -26.3516,-75.60156 -134.17191,-120.73047 -197.43363,-64.75 -14.66797,13.76953 15.36719,24.77735 27.4375,26.64844 56.36719,-12.57031 107.93363,-15.37109 135.39453,47.83203 6.4297,14.10938 28.6016,22.36719 41.1484,19.10938 2.7618,-3.28907 -3.1093,-19.01954 -5.1875,-25.26172 z m -585.83597,22.16016 c 4.43359,-0.97266 17.8164,-25.10156 23.98828,-34.35156 28.45703,-38.60938 80.70703,-38.03125 122.61328,-26.3711 26.14453,0.24219 60.21094,-8.67969 32.63672,-26.4375 -88.41407,-61.57031 -185.33594,-2.82031 -221.17969,92.50781 -6.55469,7.80079 42.41406,-5.73828 39.91406,-4.5 z M 1029.8906,709.07813 C 1022.8008,611.10938 1011.9102,524.82031 967.90625,460.44141 918.67969,392.51172 851.29688,329.42188 766.63672,356.07813 657.14844,394.41016 624.58984,583.39063 614.26563,691.21875 c 0.41796,26.0625 -8.32422,59.33203 -0.92579,83.54297 4.77735,4.75 25.17579,1.52734 38.17188,1.53906 18.17187,-1.73047 50.61719,0.41797 66.66406,-6.01953 9.35156,-4.24219 27.25781,-16.8125 39.26172,-24.21094 19.59375,-13.16015 41.80078,-25.42968 60.36719,-39.74218 9.51953,-8.46875 9.05859,-21.16797 8.19922,-36.66797 1.14062,-30.21875 -30.625,-37.25 -47.7461,-55.46094 -61.91406,-81.66797 10.42969,-132.57813 94.83203,-124.91016 32.19532,1.97266 77.09375,3.90235 94.55079,33.89063 14.26562,25.42969 7.9414,77.98047 -19.88672,98.08203 -21.1211,15.30859 -42.35157,16.9375 -42.73438,48.35937 -0.78906,7.82032 -0.48437,17.01954 1.44141,24.66797 8.4414,21.44141 35.5625,32.32032 54.3125,50.65235 14.13672,13.9375 27.19531,29.25 44.62496,36.35937 38.1719,20.51953 22.7618,-42.4414 24.9414,-62.22265 z M 921.69531,861.57031 c 8.0625,-5.08203 27.21875,-14.28906 26.57032,-25.42187 -5.58594,-21.62891 -31.82813,-39.97656 -51.47657,-49.78906 -50.99218,-26.89063 -119.70312,6.14062 -164.04297,52.3125 -5.83984,3.76953 5.61329,9.25781 10.78516,14.17968 C 790.72266,886.5 867.31641,885.78906 917.89063,863.5 Z M 683.21484,3577.3398 c 24.19922,-323.4804 296.07032,-84.1601 311.76954,-448.1914 6.87502,-58.6367 10.32422,-149.25 16.09372,-202.4296 0.9336,-8.4102 2.0508,-15.1094 -2.2773,-15.4805 -13.69924,-1.7774 -37.89455,36.9023 -43.12111,20.8008 -1.63672,-47.0977 9.20312,-90.0078 25.28125,-138.3203 13.75786,-41.1407 32.27736,-93.4297 -19.11719,-33.3594 -41.1875,55.8125 -26.03516,-155.6094 -22.09766,-195.6094 -1.10546,-19.2187 22.71485,-88.6719 1.69922,-71.1016 -11.44922,7.4219 -24.10156,25.9414 -37.20312,26.3125 -44.07031,-43 -39.14453,-148.4414 -32,-207.7226 1.78906,-10.7383 9.75781,-43.1992 -10.30078,-26.3281 -101.66407,83.9882 -24.98047,217.6289 -30.32813,322.2304 -14.65234,20.5782 -36.86719,-67.0625 -47.11719,-1.5195 -4.45312,22.2891 -46.98046,136.8086 -63.54296,110.5391 -6.34375,-11.6289 -8.46875,-61.8985 -23.77344,-61 -19.48828,38.2382 -36.92578,112.6484 -83.12891,132.6406 -10.68359,4.5078 -5.93359,-96.6016 -29.33594,-52.4297 -9.08984,18.25 -18.97656,43.9687 -31.03125,59.668 -8.76953,17.5195 -94.39453,-44.4805 -103.03515,-34.0586 -6.20703,2.2812 15.82422,33.5195 31.23047,53.9414 57.22656,64.8672 194.21484,156.6289 180.80078,226.1484 -4.875,21.8281 -61.32422,35.6992 -62.9375,61.3203 0.41406,7.8711 7.52734,13.1485 16.38672,11.8203 6.21093,-1.289 5.08203,-0.3515 19.98828,-6.3515 35.16406,-19.0703 56.70703,-13.4297 41.38672,29.832 -9.2461,15.7383 -34.36719,26.6484 -50.92969,35.8203 -29.0625,12.5391 -31.9375,42.2578 2.4375,34.5391 18.20312,-3.3711 27.16016,-9.0313 38.16797,-8.4414 4.99609,0.4492 7.21875,3.4804 5.80859,8.9297 -3.9375,14.4609 -22.96484,37 -38.01562,45.7617 C 447.21875,3328.7617 235.89844,3198.6211 114.91016,3035.75 -6.054688,2883.9414 -28.976563,2671.1719 64.707031,2502.5195 75.246094,2476.8516 0.38671905,2534.7188 0,2520.6914 c 12.523438,-57.9726 60.800781,-108.6601 93.460938,-158.7305 14.328122,-20.3711 22.601562,-28.9726 5.800781,-25.4218 -17.417969,3.6406 -41.46875,10.1914 -57.203125,12.7695 -8.050781,0.9922 -8.339844,-1.418 -4.667969,-8.1797 33.210938,-56.2305 79.496095,-119.8086 109.531245,-180.1797 5.85157,-14.4804 26.13672,-49.6875 8.39063,-47.5 -15.09766,3.6797 -53.75,51.5508 -52.83203,17.4922 1.40234,-66.832 36.44531,-200.3906 52.875,-283.6601 0.32812,-5.6524 -3.82813,-4.7422 -11.1836,0.9375 -7.59765,2.7929 -33.53515,38.332 -43.71484,38.6796 -17.507811,-85.8984 17.69141,-169.7578 41.19141,-257.6992 0.55859,-5.1094 -2.32031,-4.6875 -8.27344,-0.5 -12.85156,8.1719 -40.554687,38.4219 -45.441406,30.5508 -7.753906,-41.0391 6.441406,-95.6602 16.070316,-151.9687 6.27734,-21.8907 25.1289,-129.1407 45.08984,-117.6797 13.07812,29.4179 33.80469,73.5468 55.16016,104.7187 24.11328,32.7813 86.96093,140.5391 80.83203,58.9883 0.80469,-3.8594 3.00781,-3.7695 6.09765,-0.4102 9.54297,12.1016 19.74219,33.4219 30.72657,46.8829 42.58593,56.1679 121.92187,130.6601 181.19531,138.5976 -39.67188,-37.7773 -88.03125,-98.3203 -121.35547,-146.9687 -49.33203,-73.0821 -93.53906,-178.2188 -126.30078,-266.5508 -14.67578,-35.1289 -12.84375,44.5625 -13.31641,51.3125 -0.14453,6.6367 -2.69922,7.6172 -8.25,4.0664 -69.83594,-64.0195 -99.34765,-172.3789 -102.80469,-261.5469 -1.8125,-19.9531 -0.65625,-40.6719 -6.40234,-57.6016 -11.9375,-23.8398 -36.80078,56.2891 -48.929686,24.1407 -16.761719,-69.6094 -5.832031,-175.62112 22.488281,-250.39066 9.562505,-27.37109 -17.230469,-9.92968 -30.765625,-1.89062 -54.550781,28.37109 20.898438,-150.48047 28.925781,-161.4375 17.632809,-34.0625 42.281249,-65.19141 60.648439,-98.87109 7.70703,-29.30079 -56.09375,14.46875 -55.94922,0.0195 13.1875,-78.91016 99.48438,-168.6211 164.58594,-217.78907 41.85547,-34.04296 -47.65235,3.89063 -54.67188,-8.08984 -46.38672,-37.57031 -78.75,-95.04297 -78.5625,-157.01172 -5.80468,-241.609374 267,-246.26953 368.875,-49.42969 5.67578,11.25 -13.6914,17.01172 -33.92187,34.82032 -6.75,6.03125 -14.60547,13.17968 -20.82031,19.75 -25.73438,27.35156 -26.03516,34.42968 8.41015,14.76953 73.39844,-46.69141 159.38281,-67.98047 247.33203,-52.28907 34.61719,7.6211 59.71094,31.73047 91.82032,18.09766 21.98046,-9.56641 21.5039,-7.38672 38.51562,-14.11719 72.38672,-24.83203 146.72656,8.05079 212.65235,43.25 30.2422,16.3086 66.4805,36.64063 23.9102,-9.79296 -14.6407,-22.8086 -63.379,-36.40626 -69.62896,-59.51954 29.42966,-98.289059 148.96096,-166.437496 241.14846,-120.828121 105.6328,53.039062 122.4805,192.000001 57.5508,288.839841 -32.668,48.51953 -31.9375,46.92969 -83.3086,32.66016 -11.9922,-0.39063 -0.9219,12.19922 3.8203,17.25781 58.0586,60.6836 129.418,121.47266 150.5976,202.38281 -4.7695,10.84766 -42.5468,-4.79296 -52.957,-2.74218 -30.4805,-6.67969 38.4805,84.87109 38.0586,98.16015 38.2891,85.03125 46.1016,180.49219 33.9609,277.03125 -6.4804,26.07032 -24.1796,-15.35937 -36.1015,-25.53125 -44.3008,-51.21875 -14.7383,24.58203 -15.961,47.74219 10.0899,90.33988 -18.0781,201.48048 -62.2695,290.39068 -3,8.6289 -14.25,29.4765 0.1797,18.2773 67.6211,-51.039 107.0312,-125.0976 130.8398,-203.9101 42.1016,119.6914 14.7735,315.9804 -65.6992,385.8711 -9.5,-4.7188 1.9727,-80.8711 -18.6601,-57.5899 -40.0078,78.668 -73.9688,198.9805 -123.6172,266.1016 -21.9414,34.9687 -59.6836,67.6679 -79.9414,101.1562 86.9297,-22.1992 156.7383,-99.789 208.9414,-174.1562 18.9883,-5.0117 -4.5,63.5898 7.1679,58.1094 71.3204,-49.7696 108.9219,-149.3907 120.8711,-236.0899 2.1407,-7.4805 1.668,-25.8633 5.3477,-39.0508 4.793,-15.3203 14.0312,4.5586 18.2227,11.4883 14.5898,30.8008 23.1796,45.2227 28.5195,7.1328 9.4883,-59.0898 4.9297,-196.832 -6.8516,-237.2304 -2.1679,-26.8711 46.1992,51.0273 51.8516,49.7968 2.4375,1.1133 4.0586,0.012 4.8281,-3.0898 1.4219,-6.2891 0.6524,-19.3477 0.5313,-28.7969 0.5312,-103.4101 -63.0899,-219.3008 -94.5899,-320.58205 0.8399,-6.46094 12.4883,1.03125 16.4102,2.35156 13.6797,6.58984 34.9414,20.58984 20.6211,-8.82031 -16.543,-41.24219 -56.4024,-133.26954 -67.3907,-152.94922 -1.8125,-5.32032 -7.3203,-10.15235 0.2305,-10.89063 65.5195,19.03906 153.7188,87.6875 189.0899,143.82031 -0.2618,13.53907 -38.5899,-2.47265 -46.3829,5.86719 56.75,86.30078 154.7305,153.19141 187.8633,247.04305 -0.4101,7.1406 -14.2812,-0.8204 -31.7929,-9.4805 -16.5079,-8.2227 -40.6172,-17.832 -59.0586,-24.1211 -34.4688,-12.6602 -14.0196,5.6406 -1.0586,20.332 77.3867,83.0469 161.6367,190.6289 168.8593,303.3281 -21.3203,-8.8085 -32.7812,-29.6601 -50.5,-40.25 -80.8828,-60.3281 -41,-6.8085 -14.1093,37.0196 28.4101,26.4804 143.3398,335.5508 59.6484,254.9023 -14.0312,-9.7109 -69.6094,-54.6914 -46.9805,-15.7109 24,44.4101 46.9024,93.8398 58.6719,143.2187 9.3399,25.5899 32.4102,199.1407 -8.1328,126.7618 -13.9805,-20.9102 -34.0781,-45.1797 -51.6484,-64.3204 -19.3321,-20.6211 -31.0313,-31.8906 -27.3907,-19.5703 33.2188,91.8086 64.2422,182.8282 61.7696,280.7696 -1.5508,34.6211 6.5117,83.3515 -13.961,109.9687 -14.5195,-7.8281 -42.2773,-65.2305 -60.457,-77.5781 -9.0313,-8.9414 -13.8398,-11.0899 -12.5625,-2.332 44.9297,130.8398 72.4727,280.2421 43.6211,418.0703 -9.9414,36.5195 -13.3711,32.2109 -35.0195,-5.1602 -9.8321,-15.1601 -59.6289,-77.5976 -43.0118,-29.6484 36.9297,88.6211 77.043,286.9687 12.7305,362.8086 -8.9492,3.3398 -25.0195,-30.211 -40.5078,-41.1407 -24.3906,-20.9179 -3.1406,79.2813 -8.332,94.4727 -4.1875,65.1484 -9.2188,142.0508 -56.0586,188.6602 -9.9297,2.8398 -23.1407,-40.2422 -34.6602,-53.6016 -4.332,-5.9883 -7.332,-7.2578 -9.2695,-2.1094 -8.4922,50.1992 -4.2227,112.9805 -29.3711,159.8281 -23.9805,50.0899 -24.9297,25.6407 -58.9102,-1.3671 -5.8203,-3.0508 -8.7695,-0.4219 -8.7695,6.9882 0.7188,14.3399 5.8984,37.1211 7.4805,57.0196 22.1679,145.6406 -18.9219,317.3007 -177.25,354 -77.0508,13.039 -192.5313,5.9297 -282.4219,8.6289 -67.80469,4.8203 -226.50782,-3.3867 -315.14063,0.051 -15.60156,1.8125 -16.19922,-7.5704 -15.98047,-19.1602 l 0.27734,-8.4688" /></g></g></g><g
         id="g102"><g
           clip-path="url(#clipPath108)"
           id="g104"><g
             clip-path="url(#clipPath114)"
             id="g110"><g
               clip-path="url(#clipPath120)"
               id="g116"><g
                 clip-path="url(#clipPath126)"
                 id="g122"><g
                   transform="matrix(0.40943879,-0.24192509,0.24192509,0.40943879,469.29416,322.8945)"
                   id="g128"><path
                     id="path130"
                     style="fill:#5e17eb;fill-opacity:1;fill-rule:nonzero;stroke:none"
                     d="m 619.3125,530.44922 c 0,0 -1.69922,-3.38672 -2.25391,-9.33594 -0.23437,-2.97656 -0.28515,-6.58984 -0.47265,-10.73437 -0.15625,-4.14453 -0.33985,-8.82032 -0.53516,-13.91797 -0.76562,-20.40625 -1.78906,-47.60938 -2.8164,-74.81641 -0.42188,-13.60156 -0.78907,-27.20703 -1,-39.96094 -0.15235,-6.375 -0.17579,-12.53906 -0.24219,-18.38671 -0.043,-5.84766 -0.15235,-11.3711 -0.12891,-16.47657 0,-5.10156 -0.004,-9.77734 -0.004,-13.92578 0.0156,-4.14453 -0.0469,-7.75781 0.0352,-10.73437 0.26953,-2.97657 1.65625,-5.32422 3.07422,-6.9336 0.71094,-0.80078 1.39063,-1.41797 1.89844,-1.83203 0.5664,-0.41797 0.85937,-0.6289 0.85937,-0.6289 l 13.64844,-0.10157 c 0,0 0.29688,0.21094 0.86719,0.61719 0.51562,0.41016 1.20312,1.01563 1.92578,1.80859 1.44141,1.58204 2.86328,3.91016 3.17578,6.88672 0.125,2.97266 0.11719,6.58985 0.19141,10.73438 0.0625,4.14453 0.125,8.82031 0.19922,13.92187 0.0977,5.10157 0.0703,10.62891 0.11328,16.47657 0.0156,5.84375 0.082,12.01171 0.0195,18.38671 -0.0234,12.75782 -0.19141,26.36329 -0.41406,39.97266 -0.62891,27.21875 -1.25782,54.43359 -1.72657,74.84766 -0.12109,5.10156 -0.23437,9.78125 -0.33203,13.92578 -0.125,4.14844 -0.125,7.76172 -0.32031,10.73828 -0.46484,5.95703 -2.11328,9.37109 -2.11328,9.37109 l -13.64844,0.0977" /></g></g></g></g></g></g><g
         id="g132"><g
           clip-path="url(#clipPath138)"
           id="g134"><g
             clip-path="url(#clipPath144)"
             id="g140"><g
               clip-path="url(#clipPath150)"
               id="g146"><g
                 clip-path="url(#clipPath156)"
                 id="g152"><g
                   clip-path="url(#clipPath162)"
                   id="g158"><g
                     transform="matrix(0.40943879,-0.24192509,0.24192509,0.40943879,469.29416,322.8945)"
                     id="g164"><path
                       id="path166"
                       style="fill:#5e17eb;fill-opacity:1;fill-rule:nonzero;stroke:none"
                       d="m 626.60547,520.94141 c 0,0 0.24609,-0.0352 0.72266,-0.0977 0.50781,-0.0898 1.11718,-0.125 1.91796,-0.17578 1.47266,-0.0117 3.56641,0.0117 5.3711,0.61328 1.86719,0.5625 3.52734,1.64453 4.69922,3.36719 1.30078,1.63672 2.77343,3.48437 4.375,5.5 1.63281,1.99609 3.25781,4.2539 5.04687,6.59765 1.78906,2.34375 3.60938,4.85547 5.4375,7.49219 3.69531,5.24219 7.32813,11.04688 10.83985,16.92578 3.51171,5.88282 6.76953,11.92969 9.90625,17.54688 1.5625,2.8125 3.08984,5.51953 4.43359,8.15625 1.29297,2.66797 2.46875,5.22656 3.39062,7.6875 0.9375,2.45703 1.71875,4.76172 2.29297,6.8789 0.61328,2.09766 0.98828,4.02735 1.3086,5.61329 0.28125,1.60546 0.47656,2.88671 0.55078,3.79687 0.0976,0.89844 0.10937,1.40234 0.10937,1.40234 l -2.27734,1.50782 c 0,0 -0.45703,-0.20703 -1.24609,-0.64844 -0.8125,-0.42578 -1.91407,-1.10547 -3.28125,-1.99609 -1.33594,-0.91016 -2.96485,-2.01172 -4.65235,-3.39454 -1.72265,-1.36328 -3.53906,-2.98046 -5.43359,-4.80468 -1.90625,-1.8125 -3.80078,-3.89453 -5.75,-6.12891 -1.89844,-2.26953 -3.79688,-4.73047 -5.77344,-7.26953 -3.9375,-5.08594 -8.23047,-10.44922 -12.26953,-15.98438 -4.03906,-5.53125 -7.95703,-11.14062 -11.33984,-16.59765 -1.71094,-2.71094 -3.3125,-5.3711 -4.76563,-7.9336 -1.45703,-2.5625 -2.89844,-4.9414 -4.09766,-7.22265 -1.22656,-2.26563 -2.35156,-4.33985 -3.35156,-6.17969 -1.125,-1.75391 -1.47265,-3.70312 -1.25781,-5.64062 0.15234,-1.89454 0.94922,-3.83204 1.53516,-5.1836 0.35937,-0.71484 0.6289,-1.26172 0.91015,-1.69922 0.2461,-0.41015 0.3711,-0.625 0.3711,-0.625 l 2.27734,-1.5039" /></g></g></g></g></g></g></g><g
         id="g168"><g
           clip-path="url(#clipPath174)"
           id="g170"><g
             clip-path="url(#clipPath180)"
             id="g176"><g
               clip-path="url(#clipPath186)"
               id="g182"><g
                 clip-path="url(#clipPath192)"
                 id="g188"><g
                   transform="matrix(0.40943879,-0.24192509,0.24192509,0.40943879,469.29416,322.8945)"
                   id="g194"><path
                     id="path196"
                     style="fill:#5e17eb;fill-opacity:1;fill-rule:nonzero;stroke:none"
                     d="m 628.03516,524.34375 c 0,0 0.10937,0.22266 0.32422,0.65234 0.24218,0.45704 0.46875,1.02735 0.76953,1.77344 0.47656,1.39453 1.11718,3.39453 1.11328,5.30469 0.0586,1.95312 -0.44531,3.88281 -1.71875,5.55469 -1.14453,1.76562 -2.4375,3.76172 -3.84766,5.9375 -1.38672,2.19922 -3.01953,4.47656 -4.68359,6.93359 -1.66016,2.45703 -3.47656,5 -5.40625,7.59375 -3.82422,5.21094 -8.19531,10.53906 -12.6836,15.77734 -4.48437,5.24219 -9.21093,10.29297 -13.55859,15.09375 -2.18359,2.39454 -4.27734,4.72266 -6.36328,6.85157 -2.12891,2.09375 -4.19141,4.03515 -6.24219,5.71093 -2.04297,1.6875 -3.99219,3.17188 -5.82422,4.40625 -1.79687,1.25782 -3.51562,2.24219 -4.92187,3.05469 -1.44141,0.78906 -2.59766,1.39063 -3.44141,1.75391 -0.82422,0.38281 -1.30078,0.55859 -1.30078,0.55859 l -2.15234,-1.67969 c 0,0 0.0547,-0.5039 0.22265,-1.39843 0.14844,-0.90625 0.44922,-2.17578 0.86328,-3.76172 0.44532,-1.56641 0.97657,-3.47266 1.75782,-5.52344 0.75,-2.07812 1.71484,-4.32812 2.85156,-6.71875 1.125,-2.40234 2.50781,-4.875 4.01562,-7.44922 1.5586,-2.54297 3.30079,-5.14062 5.08985,-7.83984 3.59375,-5.39063 7.34375,-11.20703 11.33203,-16.83594 3.98437,-5.62891 8.08594,-11.16797 12.20703,-16.14844 2.04297,-2.5039 4.06641,-4.88672 6.04297,-7.09765 1.97656,-2.21094 3.78516,-4.35547 5.57812,-6.23047 1.76563,-1.89844 3.38672,-3.64063 4.82422,-5.1836 1.3086,-1.64062 3.05469,-2.60156 4.96485,-3.02343 1.85156,-0.46875 3.94922,-0.33594 5.41797,-0.21485 0.79687,0.10938 1.40234,0.19141 1.90625,0.31641 0.46875,0.10156 0.71093,0.15625 0.71093,0.15625 l 2.15235,1.67578" /><path
                     id="path198"
                     style="fill:#5e17eb;fill-opacity:1;fill-rule:nonzero;stroke:none"
                     d="m 598.73438,633.30078 c 0,0 -0.7461,-1.92578 -1.15235,-5.10937 -0.24609,-1.59766 -0.36328,-3.5 -0.35156,-5.65235 0.004,-2.15234 0.26953,-4.52343 0.52344,-7.11718 0.50781,-5.19141 1.09765,-11.24219 1.73047,-17.73438 0.60937,-6.49219 1.2539,-13.41797 2.11718,-20.29687 0.85547,-6.88282 1.9336,-13.71485 3.25,-20.05469 1.30078,-6.34375 2.75,-12.21094 4.10938,-17.21875 1.51562,-4.96875 4.57031,-8.72266 7.51172,-11.17969 0.78906,-0.60156 1.49609,-1.13672 2.10937,-1.60547 0.71094,-0.44531 1.3125,-0.82812 1.80469,-1.13672 1.07422,-0.59375 1.74609,-0.89062 1.74609,-0.89062 l 2.66797,0.58203 c 0,0 0.48828,0.54297 1.22266,1.53125 0.3164,0.48437 0.70703,1.07812 1.16797,1.77734 0.36718,0.6836 0.78906,1.46094 1.25781,2.33594 1.66016,3.45313 2.88672,8.13672 2.21094,13.28906 -0.83594,5.11719 -1.94141,11.0625 -3.38672,17.375 -1.42188,6.31641 -3.26953,12.98047 -5.33985,19.60157 -2.0625,6.61718 -4.34375,13.1914 -6.47656,19.35156 -2.10937,6.16797 -4.07422,11.92578 -5.76172,16.86328 -0.84375,2.46484 -1.58593,4.73437 -2.47265,6.69531 -0.875,1.96094 -1.77344,3.64453 -2.66016,5 -1.68359,2.72266 -3.16016,4.17188 -3.16016,4.17188 l -2.66796,-0.57813" /></g></g></g></g></g></g><g
         id="g200"><g
           clip-path="url(#clipPath206)"
           id="g202"><g
             clip-path="url(#clipPath212)"
             id="g208"><g
               clip-path="url(#clipPath218)"
               id="g214"><g
                 clip-path="url(#clipPath224)"
                 id="g220"><g
                   clip-path="url(#clipPath230)"
                   id="g226"><g
                     transform="matrix(0.40943879,-0.24192509,0.24192509,0.40943879,469.29416,322.8945)"
                     id="g232"><path
                       id="path234"
                       style="fill:#5e17eb;fill-opacity:1;fill-rule:nonzero;stroke:none"
                       d="m 637.5625,644.55859 c 0,0 -1.70312,-1.59765 -3.46094,-4.51171 -0.86328,-1.45704 -1.74609,-3.2461 -2.47656,-5.32032 -0.75781,-2.07422 -1.23828,-4.45312 -1.76562,-7.04297 -1.07422,-5.18359 -2.32813,-11.22656 -3.66797,-17.70703 -1.32813,-6.47656 -2.6836,-13.39453 -3.83203,-20.32812 -2.32422,-13.8711 -3.29297,-27.8711 -3.60547,-38.41016 -0.004,-5.28515 1.78125,-9.85937 3.83203,-13.14062 0.57031,-0.82422 1.07812,-1.5625 1.51953,-2.20313 0.53516,-0.64844 0.99609,-1.20312 1.36328,-1.64844 0.83984,-0.90625 1.38281,-1.40234 1.38281,-1.40234 l 2.71875,-0.25781 c 0,0 0.62891,0.3789 1.625,1.10937 0.44922,0.3711 1,0.82422 1.65235,1.36328 0.55468,0.54297 1.19531,1.17188 1.91015,1.8711 2.63672,2.83203 5.26172,6.98437 6.26172,12.17187 1.69531,10.41016 3.40235,24.33594 3.75781,38.39453 0.1875,7.03125 0.17188,14.07813 0.0977,20.69141 -0.0859,6.61328 -0.16406,12.78516 -0.23437,18.07813 -0.0273,2.64453 -0.0469,5.07031 -0.39844,7.25 -0.32422,2.17578 -0.84766,4.09765 -1.42188,5.69531 -1.16797,3.19531 -2.53906,5.08984 -2.53906,5.08984 l -2.71875,0.25781" /></g></g></g></g></g></g></g><g
         id="g236"><g
           clip-path="url(#clipPath242)"
           id="g238"><g
             clip-path="url(#clipPath248)"
             id="g244"><g
               clip-path="url(#clipPath254)"
               id="g250"><g
                 clip-path="url(#clipPath260)"
                 id="g256"><g
                   transform="matrix(0.40943879,-0.24192509,0.24192509,0.40943879,469.29416,322.8945)"
                   id="g262"><path
                     id="path264"
                     style="fill:#5e17eb;fill-opacity:1;fill-rule:nonzero;stroke:none"
                     d="M 3.582031,14.460939 323.16016,223.625 c 0.58203,0.38281 1.21484,0.68359 1.8789,0.89844 l 311.01953,101.04297 c 7.26954,2.36328 13.30079,-5.98047 8.78125,-12.14063 L 451.79297,50.359375 c -1.30859,-1.785156 -3.30469,-2.933594 -5.5,-3.171875 L 8.7382813,0.0507812 C 0.515625,-0.83593798 -3.335938,9.9335938 3.582031,14.460939" /><path
                     id="path266"
                     style="fill:#8c52ff;fill-opacity:1;fill-rule:nonzero;stroke:none"
                     d="M 106.36719,160.89844 175.33594,60.59375 c 0,0 172.54687,40.17969 289.43359,176.84766 l -60.78515,92.89062 c 0,0 -206.56641,-164.59375 -297.61719,-169.43359" /></g></g></g></g></g></g></g><path
       id="path268"
       style="fill:#000000;fill-opacity:0;fill-rule:nonzero;stroke:none"
       d="M 112.21464,241.97661 H 217.61918 V 345.53999 H 112.21464 Z" /><path
       id="path270"
       style="fill:#000000;fill-opacity:0;fill-rule:nonzero;stroke:none"
       d="M 116.64876,141.43411 H 258.35124 V 312.93484 H 116.64876 Z" /><path
       id="path272"
       style="fill:#000000;fill-opacity:0;fill-rule:nonzero;stroke:none"
       d="m 105.58063,130.24115 h 65.86758 v 60.7096 h -65.86758 z" /></g></svg>